# xmcd
#
# Track frame offsets:
#	150
#	24920
#	46502
#	64765
#	85025
#	104065
#	123992
#	145052
#	164557
#	186362
#	207302
#
# Disc length: 3054 seconds
#
# Revision: 0
# Processed by: cddbd v1.5.2PL0 Copyright (c) Steve Scherf et al.
# Submitted via: EZCDAudioConverter 1.3.4.1
#
DISCID=930bec0b
DTITLE=Winans Phase 2 - We Got Next
DYEAR=1999
DGENRE=Gospel
TTITLE0=I'm A Winans Too
TTITLE1=Let Him In
TTITLE2=It's Alright (Send Me)
TTITLE3=Everyday Away
TTITLE4=Real Love
TTITLE5=Always for You
TTITLE6=Come On Over
TTITLE7=Just For A Day
TTITLE8=Too Much Heaven (Phase 2)
TTITLE9=Who Do You Love
TTITLE10=Thank You Lord
EXTD=
EXTT0=
EXTT1=
EXTT2=
EXTT3=
EXTT4=
EXTT5=
EXTT6=
EXTT7=
EXTT8=
EXTT9=
EXTT10=
PLAYORDER=
